<mxfile host="app.diagrams.net" modified="2022-11-28T16:54:59.257Z" agent="5.0 (X11; CrOS x86_64 15054.98.0) AppleWebKit/537.36 (KHTML, like Gecko) Chrome/106.0.0.0 Safari/537.36" etag="0S-fmHFXzqvyaM_YHOtM" version="20.3.6" type="github">
  <diagram id="p2powREc96b305bMyRZC" name="Page-1">
    <mxGraphModel dx="802" dy="439" grid="1" gridSize="10" guides="1" tooltips="1" connect="1" arrows="1" fold="1" page="1" pageScale="1" pageWidth="850" pageHeight="1100" math="0" shadow="0">
      <root>
        <mxCell id="0" />
        <mxCell id="1" parent="0" />
        <mxCell id="RYxo0-Pw6h42v4KDhc5D-4" value="Player enters boxcollider2d trigger" style="edgeStyle=orthogonalEdgeStyle;rounded=0;orthogonalLoop=1;jettySize=auto;html=1;" edge="1" parent="1" source="RYxo0-Pw6h42v4KDhc5D-2" target="RYxo0-Pw6h42v4KDhc5D-3">
          <mxGeometry relative="1" as="geometry" />
        </mxCell>
        <mxCell id="RYxo0-Pw6h42v4KDhc5D-2" value="Gravestone created with boxcollider2d trigger" style="ellipse;whiteSpace=wrap;html=1;" vertex="1" parent="1">
          <mxGeometry x="320" y="40" width="120" height="80" as="geometry" />
        </mxCell>
        <mxCell id="RYxo0-Pw6h42v4KDhc5D-6" value="" style="edgeStyle=orthogonalEdgeStyle;rounded=0;orthogonalLoop=1;jettySize=auto;html=1;" edge="1" parent="1" source="RYxo0-Pw6h42v4KDhc5D-3" target="RYxo0-Pw6h42v4KDhc5D-5">
          <mxGeometry relative="1" as="geometry" />
        </mxCell>
        <mxCell id="RYxo0-Pw6h42v4KDhc5D-3" value="Destroy player, create dummy animation kneeling by the grave" style="ellipse;whiteSpace=wrap;html=1;" vertex="1" parent="1">
          <mxGeometry x="290" y="170" width="180" height="60" as="geometry" />
        </mxCell>
        <mxCell id="RYxo0-Pw6h42v4KDhc5D-5" value="GoS enters, play dialogue, fade out, end of level." style="ellipse;whiteSpace=wrap;html=1;" vertex="1" parent="1">
          <mxGeometry x="320" y="270" width="120" height="60" as="geometry" />
        </mxCell>
      </root>
    </mxGraphModel>
  </diagram>
</mxfile>
